# ProBuilder 4.2.3
# https://unity3d.com/unity/features/worldbuilding/probuilder
# 2020/03/11 15:48:53

mtllib ./Torus.mtl
o Torus

g Torus
v -1 1 3
v -1.029595 1.081313 3
v -1.104533 1.124578 3
v -1.18975 1.109552 3
v -1.245371 1.043266 3
v -1.245371 0.9567344 3
v -1.18975 0.8904478 3
v -1.104533 0.8754218 3
v -1.029595 0.9186873 3
v -1.006903 1 2.890625
v -1.036263 1.081313 2.894346
v -1.110607 1.124578 2.903767
v -1.195147 1.109552 2.91448
v -1.250327 1.043266 2.921473
v -1.250327 0.9567344 2.921473
v -1.195147 0.8904478 2.91448
v -1.110607 0.8754218 2.903767
v -1.036263 0.9186873 2.894346
v -1.027501 1 2.782986
v -1.056161 1.081313 2.790369
v -1.12873 1.124578 2.809061
v -1.211253 1.109552 2.830318
v -1.265116 1.043266 2.844192
v -1.265116 0.9567344 2.844192
v -1.211253 0.8904478 2.830318
v -1.12873 0.8754218 2.809061
v -1.056161 0.9186873 2.790369
v -1.061468 1 2.678791
v -1.088972 1.081313 2.689718
v -1.158616 1.124578 2.717385
v -1.237811 1.109552 2.748847
v -1.289503 1.043266 2.769383
v -1.289503 0.9567344 2.769383
v -1.237811 0.8904478 2.748847
v -1.158616 0.8754218 2.717385
v -1.088972 0.9186873 2.689718
v -1.108264 1 2.579692
v -1.134177 1.081313 2.59399
v -1.19979 1.124578 2.630193
v -1.274402 1.109552 2.671363
v -1.323101 1.043266 2.698234
v -1.323101 0.9567344 2.698234
v -1.274402 0.8904478 2.671363
v -1.19979 0.8754218 2.630193
v -1.134177 0.9186873 2.59399
v -1.167148 1 2.487263
v -1.191058 1.081313 2.504705
v -1.251598 1.124578 2.54887
v -1.320443 1.109552 2.599092
v -1.365378 1.043266 2.631873
v -1.365378 0.9567344 2.631873
v -1.320443 0.8904478 2.599092
v -1.251598 0.8754218 2.54887
v -1.191058 0.9186873 2.504705
v -1.237185 1 2.40297
v -1.258712 1.081313 2.423279
v -1.31322 1.124578 2.474705
v -1.375204 1.109552 2.533184
v -1.415661 1.043266 2.571354
v -1.415661 0.9567344 2.571354
v -1.375204 0.8904478 2.533184
v -1.31322 0.8754218 2.474705
v -1.258712 0.9186873 2.423279
v -1.317263 1 2.32815
v -1.336066 1.081313 2.351005
v -1.383676 1.124578 2.408875
v -1.437817 1.109552 2.474683
v -1.473155 1.043266 2.517636
v -1.473155 0.9567344 2.517636
v -1.437817 0.8904478 2.474683
v -1.383676 0.8754218 2.408875
v -1.336066 0.9186873 2.351005
v -1.406112 1 2.263992
v -1.421893 1.081313 2.289029
v -1.46185 1.124578 2.352426
v -1.507288 1.109552 2.424518
v -1.536945 1.043266 2.471572
v -1.536945 0.9567344 2.471572
v -1.507288 0.8904478 2.424518
v -1.46185 0.8754218 2.352426
v -1.421893 0.9186873 2.289029
v -1.502322 1 2.211512
v -1.51483 1.081313 2.238335
v -1.5465 1.124578 2.306252
v -1.582514 1.109552 2.383484
v -1.60602 1.043266 2.433894
v -1.60602 0.9567344 2.433894
v -1.582514 0.8904478 2.383484
v -1.5465 0.8754218 2.306252
v -1.51483 0.9186873 2.238335

vt 0 0
vt 0 0.08131263
vt -0.02959538 0
vt -0.1045335 0
vt -0.18975 0
vt 0 0.1095522
vt 0 0.04326556
vt 0 -0.04326555
vt 0 -0.1095522
vt 0.18975 0
vt 0.1045335 0
vt 0.02959538 0
vt 0 -0.08131266
vt -0.1093747 0
vt -0.105654 0.08131263
vt -0.03626311 -0.105654
vt -0.1106067 -0.09623294
vt -0.1951471 -0.08551969
vt 0.08551969 0.1095522
vt 0.07852712 0.04326556
vt 0.07852712 -0.04326555
vt 0.08551969 -0.1095522
vt 0.1951471 -0.08551969
vt 0.1106067 -0.09623294
vt 0.03626311 -0.105654
vt -0.105654 -0.08131266
vt -0.2170138 0
vt -0.2096315 0.08131263
vt -0.05616057 -0.2096315
vt -0.1287299 -0.1909388
vt -0.2112527 -0.1696823
vt 0.1696823 0.1095522
vt 0.1558081 0.04326556
vt 0.1558081 -0.04326555
vt 0.1696823 -0.1095522
vt 0.2112527 -0.1696823
vt 0.1287299 -0.1909388
vt 0.05616057 -0.2096315
vt -0.2096315 -0.08131266
vt -0.3212094 0
vt -0.3102826 0.08131263
vt -0.08897203 -0.3102826
vt -0.1586156 -0.2826149
vt -0.2378114 -0.2511525
vt 0.2511525 0.1095522
vt 0.2306168 0.04326556
vt 0.2306168 -0.04326555
vt 0.2511525 -0.1095522
vt 0.2378114 -0.2511525
vt 0.1586156 -0.2826149
vt 0.08897203 -0.3102826
vt -0.3102826 -0.08131266
vt -0.420308 0
vt -0.4060101 0.08131263
vt -0.1341768 -0.4060101
vt -0.1997895 -0.3698065
vt -0.2744015 -0.3286374
vt 0.3286374 0.1095522
vt 0.3017661 0.04326556
vt 0.3017661 -0.04326555
vt 0.3286374 -0.1095522
vt 0.2744015 -0.3286374
vt 0.1997895 -0.3698065
vt 0.1341768 -0.4060101
vt -0.4060101 -0.08131266
vt -0.5127372 0
vt -0.495295 0.08131263
vt -0.1910576 -0.495295
vt -0.2515983 -0.45113
vt -0.3204426 -0.4009074
vt 0.4009074 0.1095522
vt 0.3681269 0.04326556
vt 0.3681269 -0.04326555
vt 0.4009074 -0.1095522
vt 0.3204426 -0.4009074
vt 0.2515983 -0.45113
vt 0.1910576 -0.495295
vt -0.495295 -0.08131266
vt -0.3653775 -0.3681269
vt 0.3653775 -0.3681269
vt -0.5970302 0
vt -0.5767207 0.08131263
vt -0.2587118 -0.5767207
vt -0.3132198 -0.525295
vt -0.3752041 -0.4668159
vt -0.4156614 -0.4286464
vt 0.4286464 0.04326556
vt 0.4286464 -0.04326555
vt 0.4156614 -0.4286464
vt 0.3752041 -0.4668159
vt 0.3132198 -0.525295
vt 0.2587118 -0.5767207
vt -0.5767207 -0.08131266
vt -0.2371849 0
vt -0.2587118 0.08131263
vt 0.4156614 0.04326556
vt 0.4156614 -0.04326555
vt -0.2587118 -0.08131266
vt -0.3172632 0
vt -0.336066 0.08131263
vt -0.336066 -0.6489949
vt -0.3836764 -0.5911246
vt -0.437817 -0.525317
vt -0.4731547 -0.4823641
vt 0.4731547 0.04326556
vt 0.4731547 -0.04326555
vt 0.4731547 -0.4823641
vt 0.437817 -0.525317
vt 0.3836764 -0.5911246
vt 0.336066 -0.6489949
vt -0.336066 -0.08131266
vt -0.4061121 0
vt -0.4218925 0.08131263
vt -0.4218925 -0.7109709
vt -0.4618499 -0.6475743
vt -0.5072877 -0.5754822
vt -0.5369451 -0.5284276
vt 0.5369451 0.04326556
vt 0.5369451 -0.04326555
vt 0.5369451 -0.5284276
vt 0.5072877 -0.5754822
vt 0.4618499 -0.6475743
vt 0.4218925 -0.7109709
vt -0.4218925 -0.08131266
vt 0.5072877 0.1095522
vt 0.5072877 -0.1095522
vt -0.5023222 0
vt -0.5148297 0.08131263
vt -0.5148297 -0.7616653
vt -0.5464999 -0.6937483
vt -0.5825139 -0.6165159
vt 0.5825139 0.1095522
vt 0.6060205 0.04326556
vt 0.6060205 -0.04326555
vt 0.5825139 -0.1095522
vt 0.5825139 -0.6165159
vt 0.5464999 -0.6937483
vt 0.5148297 -0.7616653
vt -0.5148297 -0.08131266

vn 0.9980145 1.743918E-07 -0.06298407
vn 0.7650043 0.642213 -0.04827884
vn 0.1735594 0.9847625 -0.01095318
vn -0.4995771 0.8656955 0.03152792
vn -0.9379938 0.3415602 0.05919591
vn -0.9379939 -0.3415602 0.05919586
vn -0.4995771 -0.8656955 0.03152788
vn 0.1735594 -0.9847625 -0.01095318
vn 0.7650042 -0.6422131 -0.04827876
vn 0.992066 1.429681E-07 -0.125718
vn 0.7598209 0.6429628 -0.09628702
vn 0.1721927 0.9848216 -0.02182083
vn -0.49586 0.8661261 0.06283709
vn -0.9321865 0.3421602 0.1181297
vn -0.9321865 -0.3421602 0.1181298
vn -0.49586 -0.8661261 0.06283709
vn 0.1721927 -0.9848216 -0.02182088
vn 0.7598208 -0.6429629 -0.09628708
vn 0.9683899 6.354136E-08 -0.2494411
vn 0.7416874 0.6429628 -0.1910463
vn 0.1680832 0.9848216 -0.04329549
vn -0.4840262 0.866126 0.1246772
vn -0.9099395 0.3421602 0.2343854
vn -0.9099395 -0.3421601 0.2343854
vn -0.4840262 -0.866126 0.1246772
vn 0.1680831 -0.9848216 -0.04329539
vn 0.7416873 -0.6429629 -0.1910463
vn 0.9293476 5.55987E-08 -0.369206
vn 0.7117848 0.6429629 -0.282774
vn 0.1613067 0.9848216 -0.064083
vn -0.4645117 0.866126 0.1845387
vn -0.8732535 0.3421603 0.3469216
vn -0.8732536 -0.3421602 0.3469216
vn -0.4645117 -0.8661261 0.1845387
vn 0.1613066 -0.9848216 -0.06408305
vn 0.7117848 -0.6429629 -0.282774
vn 0.8755581 8.736939E-08 -0.4831127
vn 0.6705876 0.642963 -0.3700147
vn 0.1519704 0.9848216 -0.08385378
vn -0.4376265 0.8661261 0.241472
vn -0.8227109 0.3421603 0.4539527
vn -0.8227109 -0.3421602 0.4539528
vn -0.4376264 -0.8661261 0.241472
vn 0.1519703 -0.9848216 -0.08385368
vn 0.6705876 -0.6429629 -0.3700147
vn 0.8078756 1.032547E-07 -0.5893531
vn 0.6187497 0.6429629 -0.451384
vn 0.1402228 0.9848216 -0.1022939
vn -0.4037969 0.8661261 0.2945737
vn -0.7591135 0.3421603 0.5537806
vn -0.7591136 -0.3421603 0.5537806
vn -0.4037969 -0.8661261 0.2945737
vn 0.1402227 -0.9848216 -0.1022939
vn 0.6187497 -0.6429629 -0.4513839
vn 0.7273736 1.191401E-07 -0.6862417
vn 0.5570935 0.6429629 -0.5255907
vn 0.12625 0.9848216 -0.1191108
vn -0.36356 0.8661261 0.3430011
vn -0.6834705 0.3421603 0.6448212
vn -0.6834705 -0.3421602 0.6448212
vn -0.36356 -0.8661261 0.3430011
vn 0.12625 -0.9848216 -0.1191107
vn 0.5570935 -0.6429629 -0.5255907
vn 0.6353297 1.111974E-07 -0.772241
vn 0.4865974 0.6429629 -0.5914573
vn 0.110274 0.9848216 -0.1340377
vn -0.317554 0.8661261 0.3859858
vn -0.5969822 0.3421603 0.7256297
vn -0.5969823 -0.3421603 0.7256297
vn -0.3175541 -0.8661261 0.3859858
vn 0.110274 -0.9848216 -0.1340376
vn 0.4865974 -0.6429629 -0.5914573
vn 0.5332044 1.032547E-07 -0.8459864
vn 0.40838 0.6429628 -0.6479388
vn 0.09254825 0.9848216 -0.1468377
vn -0.2665093 0.8661261 0.4228457
vn -0.5010212 0.3421603 0.794924
vn -0.5010212 -0.3421602 0.794924
vn -0.2665093 -0.8661261 0.4228458
vn 0.09254817 -0.9848216 -0.1468376
vn 0.4083799 -0.6429628 -0.6479388
vn 0.478862 4.75614E-08 -0.8778902
vn 0.3670603 0.642213 -0.6729259
vn 0.08327637 0.9847625 -0.1526693
vn -0.2397045 0.8656955 0.4394463
vn -0.4500633 0.3415602 0.8250937
vn -0.4500634 -0.3415602 0.8250937
vn -0.2397045 -0.8656955 0.4394463
vn 0.08327632 -0.9847625 -0.1526692
vn 0.3670603 -0.642213 -0.6729259

usemtl Lit
f 1/1/1 10/14/10 11/15/11 2/2/2
f 2/3/2 11/16/11 12/17/12 3/4/3
f 3/4/3 12/17/12 13/18/13 4/5/4
f 4/6/4 13/19/13 14/20/14 5/7/5
f 5/7/5 14/20/14 15/21/15 6/8/6
f 6/8/6 15/21/15 16/22/16 7/9/7
f 7/10/7 16/23/16 17/24/17 8/11/8
f 8/11/8 17/24/17 18/25/18 9/12/9
f 9/13/9 18/26/18 10/14/10 1/1/1
f 10/14/10 19/27/19 20/28/20 11/15/11
f 11/16/11 20/29/20 21/30/21 12/17/12
f 12/17/12 21/30/21 22/31/22 13/18/13
f 13/19/13 22/32/22 23/33/23 14/20/14
f 14/20/14 23/33/23 24/34/24 15/21/15
f 15/21/15 24/34/24 25/35/25 16/22/16
f 16/23/16 25/36/25 26/37/26 17/24/17
f 17/24/17 26/37/26 27/38/27 18/25/18
f 18/26/18 27/39/27 19/27/19 10/14/10
f 19/27/19 28/40/28 29/41/29 20/28/20
f 20/29/20 29/42/29 30/43/30 21/30/21
f 21/30/21 30/43/30 31/44/31 22/31/22
f 22/32/22 31/45/31 32/46/32 23/33/23
f 23/33/23 32/46/32 33/47/33 24/34/24
f 24/34/24 33/47/33 34/48/34 25/35/25
f 25/36/25 34/49/34 35/50/35 26/37/26
f 26/37/26 35/50/35 36/51/36 27/38/27
f 27/39/27 36/52/36 28/40/28 19/27/19
f 28/40/28 37/53/37 38/54/38 29/41/29
f 29/42/29 38/55/38 39/56/39 30/43/30
f 30/43/30 39/56/39 40/57/40 31/44/31
f 31/45/31 40/58/40 41/59/41 32/46/32
f 32/46/32 41/59/41 42/60/42 33/47/33
f 33/47/33 42/60/42 43/61/43 34/48/34
f 34/49/34 43/62/43 44/63/44 35/50/35
f 35/50/35 44/63/44 45/64/45 36/51/36
f 36/52/36 45/65/45 37/53/37 28/40/28
f 37/53/37 46/66/46 47/67/47 38/54/38
f 38/55/38 47/68/47 48/69/48 39/56/39
f 39/56/39 48/69/48 49/70/49 40/57/40
f 40/58/40 49/71/49 50/72/50 41/59/41
f 41/59/41 50/72/50 51/73/51 42/60/42
f 42/60/42 51/73/51 52/74/52 43/61/43
f 43/62/43 52/75/52 53/76/53 44/63/44
f 44/63/44 53/76/53 54/77/54 45/64/45
f 45/65/45 54/78/54 46/66/46 37/53/37
f 46/66/46 55/81/55 56/82/56 47/67/47
f 47/68/47 56/83/56 57/84/57 48/69/48
f 48/69/48 57/84/57 58/85/58 49/70/49
f 49/70/49 58/85/58 59/86/59 50/79/50
f 50/72/50 59/87/59 60/88/60 51/73/51
f 51/80/51 60/89/60 61/90/61 52/75/52
f 52/75/52 61/90/61 62/91/62 53/76/53
f 53/76/53 62/91/62 63/92/63 54/77/54
f 54/78/54 63/93/63 55/81/55 46/66/46
f 55/94/55 64/99/64 65/100/65 56/95/56
f 56/83/56 65/101/65 66/102/66 57/84/57
f 57/84/57 66/102/66 67/103/67 58/85/58
f 58/85/58 67/103/67 68/104/68 59/86/59
f 59/96/59 68/105/68 69/106/69 60/97/60
f 60/89/60 69/107/69 70/108/70 61/90/61
f 61/90/61 70/108/70 71/109/71 62/91/62
f 62/91/62 71/109/71 72/110/72 63/92/63
f 63/98/63 72/111/72 64/99/64 55/94/55
f 64/99/64 73/112/73 74/113/74 65/100/65
f 65/101/65 74/114/74 75/115/75 66/102/66
f 66/102/66 75/115/75 76/116/76 67/103/67
f 67/103/67 76/116/76 77/117/77 68/104/68
f 68/105/68 77/118/77 78/119/78 69/106/69
f 69/107/69 78/120/78 79/121/79 70/108/70
f 70/108/70 79/121/79 80/122/80 71/109/71
f 71/109/71 80/122/80 81/123/81 72/110/72
f 72/111/72 81/124/81 73/112/73 64/99/64
f 73/112/73 82/127/82 83/128/83 74/113/74
f 74/114/74 83/129/83 84/130/84 75/115/75
f 75/115/75 84/130/84 85/131/85 76/116/76
f 76/125/76 85/132/85 86/133/86 77/118/77
f 77/118/77 86/133/86 87/134/87 78/119/78
f 78/119/78 87/134/87 88/135/88 79/126/79
f 79/121/79 88/136/88 89/137/89 80/122/80
f 80/122/80 89/137/89 90/138/90 81/123/81
f 81/124/81 90/139/90 82/127/82 73/112/73

